<svg xmlns="http://www.w3.org/2000/svg" viewBox="0 0 264.36 190.76"><title>Asset 4</title><g id="Layer_2" data-name="Layer 2"><g id="Layer_1-2" data-name="Layer 1"><g id="mp"><path d="M184.7,142.36c.35-9.73.83-19.44,1.05-29.17.25-11.3-.8-22.51-1.87-33.75q-.47-4.84-.95-9.69c-.16-1.65-.33-3.3-.49-4.94a21.28,21.28,0,0,0-.71-4.72,14.61,14.61,0,0,0-1.34,3l-1.23,4c-.73,2.38-1.47,4.76-2.2,7.15-1.51,4.89-3,9.78-4.54,14.67-3,9.45-5.77,19-10.07,27.94-1.69,3.52-3.31,7.72-6.87,9.78a8.89,8.89,0,0,1-9.14-.4c-3.61-2.18-6.23-6-8.43-9.53A61.17,61.17,0,0,1,132.26,105a93,93,0,0,1-3.91-14.39c-.54-2.79-1-5.59-1.47-8.39-.24-1.4-.48-2.8-.74-4.19a14.39,14.39,0,0,0-1.29-3.38c-6.35,16.77-8.21,34.91-11.44,52.44-.52,2.81-2.07,6.49-5.52,6.26s-4.6-4-4.78-6.89c-.56-9.08-1.19-18.16-2.22-27.21-.57-5-1.25-10.06-2.09-15.06q-.63-3.85-1.4-7.68a54.1,54.1,0,0,0-2.22-7c-.9,1.71-2,3.33-2.71,5.12S91,78.53,90.34,80.51c-1.32,3.92-2.47,7.9-3.51,11.9-2.09,8.08-3.75,16.26-5.36,24.44-1.65,8.41-3,16.86-4.38,25.31q-.51,3.19-1,6.39a15.34,15.34,0,0,1-1,4.41c-1.21,2.34-5,2.36-6.58.45a5.93,5.93,0,0,1-1.11-3.87c0-2.18,0-4.35,0-6.53,0-4.34.08-8.68-.24-13a229.81,229.81,0,0,0-3.34-25.06q-1.12-6.15-2.57-12.26c-.95-4-1.86-8.16-3.18-12.09a35.27,35.27,0,0,0-2.34-5.48c-.41-.76-1.06-2.1-2.1-2.07s-2,1.5-2.58,2.27a47.34,47.34,0,0,0-3.13,5c-3.73,6.74-6,14.14-8.36,21.45C37,109.9,34.49,118.11,32,126.31c-2.49,8-4.84,16.13-8,23.9a62.8,62.8,0,0,1-5.39,10.71c-2,3-4.74,5.32-7.44,7.6-1.31,1.11-2.6,2.58-4.15,3.34a7.74,7.74,0,0,1-4.41.56C1.44,172.28-.09,172,0,170.5c.08-1.16,1.5-1.65,2.35-2.13a28.42,28.42,0,0,0,7.45-6.59,33.48,33.48,0,0,0,5.14-8.5c1.57-3.72,2.68-7.66,4-11.49,1.36-4.14,2.72-8.27,4.05-12.42q3.94-12.24,7.74-24.53c2.34-7.57,4.59-15.19,7.79-22.45a73.57,73.57,0,0,1,5.46-10.26,16.87,16.87,0,0,1,7.92-6.8,7.51,7.51,0,0,1,7.23,1c2.62,2,3.81,5.08,4.75,8.1,2.51,8.15,4.49,16.44,6.58,24.7.5,2,.89,4,1.24,6a28.86,28.86,0,0,0,1.3,5.62c1.88-7,3.12-14.16,4.87-21.19a139.52,139.52,0,0,1,6.4-20.11A56.32,56.32,0,0,1,88.9,60c1.51-2.28,3.6-4.84,6.4-5.48,2.49-.57,4.59.9,5.91,2.91,1.86,2.87,2.88,6.46,3.81,9.72a112.68,112.68,0,0,1,2.65,11.75,116.45,116.45,0,0,0,2.22,12A109,109,0,0,1,112.79,79c1.07-4,2.21-8,3.52-12a103.07,103.07,0,0,1,4.62-11.63c1.31-2.76,3.42-5.71,6.74-6,2.62-.25,4.61,1.61,5.38,4a35.74,35.74,0,0,1,1.14,6.09c.29,2.09.5,4.2.7,6.3a180,180,0,0,0,3.64,24.45c1.84,7.76,4.46,15.5,9,22.11.57.83,1.11,1.69,1.7,2.5.39.54,1,1.24,1.73,1.07s1.08-1,1.36-1.56c.49-1,1-2,1.44-3,1.82-3.88,2.83-8.11,4.06-12.2q7.69-25.61,15.34-51.22L177,35.29c.92-3,2.08-7.61,5.48-8.79a5.52,5.52,0,0,1,7,3.21,33.87,33.87,0,0,1,.92,6.12q.42,3.21.82,6.42c.26,2,.54,4,.88,6.07a19.31,19.31,0,0,0,1.11-2.4c.34-1,.6-2.1.9-3.14.55-1.92,1.09-3.85,1.66-5.76a113.2,113.2,0,0,1,4-11.45c1.49-3.53,3.15-7.29,5.78-10.13,2.24-2.43,5.52-4.85,9-4.4s5.31,3.34,6.84,6.08c2.1,3.74,2.37,8.11,3,12.28,1.38,8.62,2.48,17.22,2,26-.11,2.23-.27,4.45-.42,6.67-.05.74-.7,3.61.64,3.6a3,3,0,0,0,1.16-.46c.79-.41,1.56-.85,2.32-1.31a38.43,38.43,0,0,0,4.38-3.14C240.13,56,244.21,49.66,247.22,43a65.31,65.31,0,0,0,5.52-22c.32-4.28-.25-8.42-.49-12.69-.15-2.67-.22-6.57,2.65-8S260.81,1.59,262,4a24.79,24.79,0,0,1,1.67,5.81,25.46,25.46,0,0,1,.66,6.08,85.42,85.42,0,0,1-3.84,23.21A73.09,73.09,0,0,1,250,59.22a49.35,49.35,0,0,1-16.41,14.91c-2.91,1.57-6.26,2.36-8.74,4.65s-3.51,5.79-5.37,8.62c-3.81,5.81-9.28,12.44-17,11.4-1.3-.17-3-1.13-4.32-.73s-1.17,2-1.27,3c-.45,4.41.11,8.78.51,13.18.8,8.82,1.49,17.62,1.86,26.47s.63,17.59.88,26.39q.18,6.65.37,13.3c.09,3.41.17,7.5-3.08,9.61a5,5,0,0,1-6.72-1.29c-2.45-3.13-3.27-7.14-3.57-11-.68-8.36-1.22-16.73-1.74-25.1C185.13,149.18,184.92,145.77,184.7,142.36ZM212.25,26.1A6,6,0,0,0,210.63,28c-.39.84-.7,1.72-1,2.57-.76,1.87-1.48,3.74-2.13,5.65-1.27,3.73-2.32,7.53-3.23,11.36s-1.71,7.7-2.47,11.56c-.38,2-.8,3.93-1.14,5.9s-.44,4-.66,6c3.2-.41,6.41-.9,9.62-1.27,2.22-.26,4.33-.25,4.86-2.87a60.44,60.44,0,0,0,.9-7.95C217.31,31.33,212.77,27,212.25,26.1Zm-9,61.19a2.81,2.81,0,0,0,.87-.11A7,7,0,0,0,205.45,86l2.71-2.59c.49-.46,2.22-1.62,1.84-2.29-.22-.4-.34-.3-.77-.19l-1.81.46c-1.14.3-2.28.6-3.4,1-.77.26-1.81.39-2.11,1.23a5,5,0,0,0-.17,2.31C201.88,86.71,202.68,86.84,203.29,87.29Z"/></g></g></g></svg>